<svg width="466" height="512" viewBox="0 0 466 512" fill="none" xmlns="http://www.w3.org/2000/svg">
<path d="M156.361 99.9029C144.951 88.4929 139.907 82.8979 139.909 69.8139C139.907 56.7349 144.953 51.1399 156.366 39.7249C165.455 30.6379 165.455 15.9049 156.368 6.81589C147.281 -2.27411 132.543 -2.27111 123.454 6.81389C110.755 19.5119 93.359 36.9039 93.364 69.8129C93.359 102.727 110.752 120.118 123.453 132.814C134.864 144.227 139.91 149.825 139.91 162.906C139.91 175.76 150.33 186.179 163.183 186.179C176.036 186.179 186.456 175.761 186.456 162.906C186.454 129.993 169.062 112.601 156.361 99.9029Z" fill="#42C7C1"/>
<path d="M264.967 99.9029C253.557 88.4929 248.513 82.8979 248.515 69.8139C248.513 56.7349 253.559 51.1399 264.972 39.7249C274.061 30.6379 274.061 15.9049 264.974 6.81589C255.887 -2.27411 241.149 -2.27111 232.06 6.81389C219.361 19.5119 201.965 36.9059 201.97 69.8129C201.965 102.727 219.358 120.118 232.059 132.814C243.47 144.227 248.516 149.825 248.516 162.906C248.516 175.76 258.936 186.179 271.789 186.179C284.642 186.179 295.062 175.761 295.062 162.906C295.061 129.993 277.668 112.601 264.967 99.9029Z" fill="#42C7C1"/>
<path d="M358.401 403.393H380.394C380.416 403.393 380.433 403.39 380.455 403.39C427.478 403.359 465.728 365.092 465.728 318.059C465.728 271.006 427.447 232.725 380.394 232.725H349.364H39.06C26.207 232.725 15.787 243.147 15.787 255.998V333.574C15.787 385.767 38.315 432.795 74.157 465.453H23.545C10.692 465.453 0.272003 475.871 0.272003 488.726C0.272003 501.577 10.692 511.999 23.545 511.999H194.212H364.879C377.732 511.999 388.152 501.577 388.152 488.726C388.152 475.872 377.732 465.453 364.879 465.453H314.267C333.104 448.289 348.257 427.158 358.401 403.393ZM372.637 333.575V279.272H380.395C401.783 279.272 419.183 296.672 419.183 318.06C419.183 339.448 401.783 356.848 380.395 356.848C380.384 356.848 380.375 356.848 380.364 356.848H371.119C372.115 349.229 372.637 341.461 372.637 333.575Z" fill="#42C7C1"/>
</svg>
